<?xml version="1.0" encoding="utf-8"?>
<!-- Generator: Adobe Illustrator 26.5.0, SVG Export Plug-In . SVG Version: 6.00 Build 0)  -->
<svg version="1.1" id="Layer_1" xmlns="http://www.w3.org/2000/svg" xmlns:xlink="http://www.w3.org/1999/xlink" x="0px" y="0px"
	 viewBox="0 0 2194.8 758.6" style="enable-background:new 0 0 2194.8 758.6;" xml:space="preserve">
<style type="text/css">
	.st0{fill:#231F20;}
</style>
<g>
	<g>
		<path class="st0" d="M977,357l-37.6,115h-28.6l-25.3-77.9L859.4,472H831l-37.8-115h27.6l26,80.8l27.1-80.8h24.7l26.3,81.5
			l26.8-81.5H977z"/>
		<path class="st0" d="M1013.9,466.3c-9.6-5.1-17.1-12.2-22.5-21.3s-8.1-19.2-8.1-30.5s2.7-21.4,8.1-30.5s12.9-16.1,22.5-21.3
			c9.6-5.1,20.4-7.7,32.3-7.7s22.7,2.6,32.2,7.7c9.5,5.1,17,12.2,22.5,21.3c5.5,9,8.2,19.2,8.2,30.5s-2.7,21.4-8.2,30.5
			s-13,16.1-22.5,21.3s-20.3,7.7-32.2,7.7S1023.5,471.4,1013.9,466.3z M1064.6,446.6c5.5-3.1,9.8-7.5,12.9-13.1
			c3.1-5.6,4.7-11.9,4.7-19.1s-1.6-13.5-4.7-19.1s-7.4-9.9-12.9-13.1c-5.5-3.1-11.6-4.7-18.4-4.7s-12.9,1.6-18.4,4.7
			c-5.5,3.1-9.8,7.5-12.9,13.1c-3.1,5.6-4.7,11.9-4.7,19.1s1.6,13.5,4.7,19.1c3.1,5.6,7.4,9.9,12.9,13.1c5.5,3.1,11.6,4.7,18.4,4.7
			S1059.1,449.8,1064.6,446.6z"/>
		<path class="st0" d="M1234.7,357v115h-21.8l-57.3-69.8V472h-26.3V357h22l57.2,69.8V357H1234.7z"/>
		<path class="st0" d="M1261.9,357h52.2c12.5,0,23.5,2.4,33.1,7.1c9.6,4.8,17,11.5,22.3,20.1c5.3,8.6,8,18.7,8,30.2
			s-2.7,21.6-8,30.2c-5.3,8.6-12.8,15.4-22.3,20.1c-9.6,4.8-20.6,7.1-33.1,7.1h-52.2V357z M1312.9,450.2c11.5,0,20.7-3.2,27.5-9.6
			c6.8-6.4,10.3-15.1,10.3-26c0-11-3.4-19.6-10.3-26c-6.8-6.4-16-9.6-27.5-9.6h-24.3v71.3L1312.9,450.2L1312.9,450.2z"/>
		<path class="st0" d="M1486.7,450.7V472h-89.1V357h86.9v21.4h-60.5v25h53.4V424h-53.4v26.6L1486.7,450.7L1486.7,450.7z"/>
		<path class="st0" d="M1581.2,472l-22.2-32h-1.3h-23.2v32h-26.6V357h49.8c10.2,0,19,1.7,26.5,5.1c7.5,3.4,13.3,8.2,17.3,14.5
			c4.1,6.2,6.1,13.6,6.1,22.2c0,8.5-2.1,15.9-6.2,22.1s-9.9,10.9-17.5,14.2l25.8,37H1581.2z M1574.5,383.9
			c-4.2-3.5-10.2-5.2-18.2-5.2h-21.7v40.1h21.7c8,0,14.1-1.8,18.2-5.3c4.2-3.5,6.2-8.4,6.2-14.8
			C1580.7,392.3,1578.6,387.3,1574.5,383.9z"/>
		<path class="st0" d="M1650.9,378.7h-36.8V357h100.2v21.7h-36.8V472h-26.6L1650.9,378.7L1650.9,378.7z"/>
		<path class="st0" d="M1817.6,450.7V472h-89.1V357h86.9v21.4H1755v25h53.4V424H1755v26.6L1817.6,450.7L1817.6,450.7z"/>
		<path class="st0" d="M1861.8,466.4c-9.5-5.1-16.9-12.2-22.3-21.2c-5.4-9-8.1-19.3-8.1-30.6c0-11.4,2.7-21.6,8.1-30.6
			c5.4-9,12.9-16.1,22.3-21.2c9.5-5.1,20.1-7.6,32-7.6c10,0,19,1.8,27,5.3s14.8,8.5,20.3,15.1l-17.1,15.8
			c-7.8-9-17.4-13.5-28.9-13.5c-7.1,0-13.5,1.6-19.1,4.7c-5.6,3.1-9.9,7.5-13.1,13.1c-3.1,5.6-4.7,11.9-4.7,19.1s1.6,13.5,4.7,19.1
			c3.1,5.6,7.5,9.9,13.1,13.1s11.9,4.7,19.1,4.7c11.5,0,21.1-4.5,28.9-13.6l17.1,15.8c-5.5,6.7-12.3,11.8-20.4,15.3
			c-8.1,3.5-17.2,5.3-27.1,5.3C1881.8,474,1871.2,471.5,1861.8,466.4z"/>
		<path class="st0" d="M2064.4,357v115h-26.6v-47.2h-52.2V472h-26.6V357h26.6v45.4h52.2V357H2064.4z"/>
	</g>
</g>
<g>
	<polygon class="st0" points="713.9,626.8 713.9,321.5 644.8,260.1 613.1,231.9 613.1,324.5 644.8,352.7 644.8,626.8 571.4,626.8 
		571.4,194.8 502.3,133.3 466.9,101.9 414.9,55.6 362.8,101.9 195.4,250.7 126.4,312.1 126.4,626.8 29.3,626.8 33.3,692.8 
		373.7,692.8 369.7,462.6 459.1,462.6 459.1,396.7 300.6,396.7 300.6,626.8 195.4,626.8 195.4,343.3 414.9,148.2 502.3,225.9 
		502.3,626.8 506.3,692.8 815.4,692.8 811.4,626.8 	"/>
	<g>
		<rect x="369.2" y="243.3" class="st0" width="39.9" height="39.9"/>
		<rect x="420.5" y="243.3" class="st0" width="39.9" height="39.9"/>
		<rect x="369.2" y="294.6" class="st0" width="39.9" height="39.9"/>
		<rect x="420.5" y="294.6" class="st0" width="39.9" height="39.9"/>
	</g>
</g>
</svg>
